# xmcd
# 
# Track frame offsets:
#     150
#     16998
#     34627
#     55426
#     66494
#     84178
#     99347
#     112841
#     126742
#     143280
#     154658
#     167579
#     180154
#     193023
#     203631
# 
# Disc length: 2886
# 
# Revision: 0
# Processed by: cddbd v1.5.2PL0 Copyright (c) Steve Scherf et al.
# Submitted via: BonkEnc v1.0.15
# 
DISCID=ba0b440f
DTITLE=Johnny Cash - American IV: The Man Comes Around 
DYEAR=2002
DGENRE=Country
TTITLE0=The Man Comes Around
TTITLE1=One
TTITLE2=The Mercy Seat
TTITLE3=Solitary Man
TTITLE4=I Hung My Head
TTITLE5=Personal Jesus
TTITLE6=In My Life
TTITLE7=I'm So Lonesome I Could Cry
TTITLE8=Hurt
TTITLE9=Thirteen
TTITLE10=Like a Soldier
TTITLE11=The Beast in Me
TTITLE12=Rusty Cage
TTITLE13=Memories Are Made of This
TTITLE14=Unchained
EXTD=
EXTT0=
EXTT1=
EXTT2=
EXTT3=
EXTT4=
EXTT5=
EXTT6=
EXTT7=
EXTT8=
EXTT9=
EXTT10=
EXTT11=
EXTT12=
EXTT13=
EXTT14=
PLAYORDER=
